<svg id="레이어_1" data-name="레이어 1" xmlns="http://www.w3.org/2000/svg" viewBox="0 0 263.71 263.71"><defs><style>.cls-1{fill:#fff;}</style></defs><title>circle</title><path class="cls-1" d="M261,116.81c-6.82-6.77-8.84-14.67-6.19-23.85A27,27,0,0,0,256,85c-.1-1.25-.11-2.51-.32-3.74C253.51,68.82,246.15,61.2,234,58c-8.84-2.31-14.59-7.92-16.78-16.74C213.18,25,198.22,16,182.1,20.59a23.53,23.53,0,0,1-8.72,1.05c-6.3-.61-11.24-3.57-15.65-8-11.09-11.17-28.14-11.11-39.2.08-7.15,7.24-15.29,9.52-25.2,6.69A27.06,27.06,0,0,0,59.44,40.08C57,49.87,51,55.9,41.16,58.41A27.2,27.2,0,0,0,21.49,92.77c2.75,9.46.54,17.43-6.35,24.3-11.78,11.74-11.82,28.48,0,40.19,6.94,6.89,9.06,14.81,6.35,24.27a27.23,27.23,0,0,0,19.69,34.39c9.77,2.44,15.65,8.38,18.18,18,4.13,15.75,19.13,24.23,34.78,19.77,9.1-2.59,16.92-.55,23.61,6.17,12.1,12.15,28.68,12.12,40.81,0,6.68-6.69,14.52-8.75,23.62-6.14,15.79,4.53,31.06-4.36,35-20.3,2.25-9.2,8-15,17.21-17.27,15.94-3.89,24.92-19.15,20.4-34.91-2.64-9.21-.54-17.09,6.25-23.84C273,145.46,273,128.77,261,116.81Zm-8.49,66.71c3.78,13.52-3.57,26-17.19,29.48C224,215.84,216.82,223,214,234.32c-3.4,13.57-16,20.9-29.5,17.14-11.42-3.18-21.31-.56-29.55,8a22.82,22.82,0,0,1-33.31.24c-8.59-8.91-18.72-11.51-30.54-8.14-12.69,3.62-25.45-3.87-28.73-16.94C59.43,223,52.22,215.78,40.55,212.9a23,23,0,0,1-16.82-29c3.33-11.55.65-21.44-7.84-29.87-10-9.93-10-23.75,0-33.66,8.48-8.42,11.23-18.28,7.88-29.84-3.79-13.11,3.94-26,17.27-29.28C52.34,58.44,59.46,51.28,62.23,40A23.26,23.26,0,0,1,91.82,22.8c11.11,3.22,20.78.66,29-7.43,10.71-10.6,24-10.65,34.66-.07,8.17,8.11,17.83,10.71,28.95,7.54C198,19,210.54,26.37,214,40.13c2.83,11.16,9.91,18.32,21.15,21.08a23.66,23.66,0,0,1,18.37,23.51c0,2.17-1,4.94-1.59,7.8-2.35,10.89.58,20.17,8.59,28,7.5,7.3,9.34,17.41,5.06,26.43a24,24,0,0,1-5.14,7.05C251.88,162.2,249.28,172.1,252.46,183.52Z" transform="translate(-6.29 -5.28)"/></svg>