<svg id="레이어_1" data-name="레이어 1" xmlns="http://www.w3.org/2000/svg" viewBox="0 0 186.05 261.78"><defs><style>.cls-1{fill:#fff;}</style></defs><title>scroll-arrow</title><path class="cls-1" d="M101,5.79c8.79,2.63,12.11,8.08,12.09,16.21C113,113.06,113,126.33,113,217.39v4.53c1.6-1.33,2.68-2.17,3.69-3.07q24.21-21.48,48.41-43a15.9,15.9,0,0,1,15.14-3.58c5.59,1.4,9.15,4.88,10.39,9.94s-.64,9.11-4.63,12.64q-22.62,20.08-45.21,40.2-15.33,13.63-30.68,27.26c-7.91,7-16.32,7-24.2,0Q47.83,228.48,9.77,194.61C4.55,190,3.54,183.86,6.89,178.53a15,15,0,0,1,16.22-6.38,21,21,0,0,1,8.49,4.46c15.93,13.89,31.65,28,47.43,42,1,.94,2,2,2.93,3l1-.27v-3.64c0-91.17,0-104.55-.09-195.72,0-8.12,3.3-13.57,12.09-16.2Z" transform="translate(-4.95 -5.79)"/></svg>